<?xml version="1.0" encoding="UTF-8"?>
<svg width="1200pt" height="1200pt" version="1.1" viewBox="0 0 1200 1200" xmlns="http://www.w3.org/2000/svg">
 <path d="m1183.6 638.53c-32.844-42.949-103.58-125.05-114.95-137.68 0-7.5781-1.2617-29.051-16.422-41.684-8.8438-7.5781-21.473-10.105-36.633-6.3164l-42.941-48c1.2617-7.5781 3.7891-30.316-8.8438-44.211-8.8438-8.8438-21.473-12.633-37.895-10.105l-96-88.422c-18.949-17.684-42.949-27.789-69.473-29.051-16.422-1.2617-35.367 1.2617-55.578 3.7891-80.844 13.895-654.32 78.312-659.37 79.578 0 0-3.7891 0-8.8438 1.2617-1.2617 0-1.2617 0-2.5273 1.2617-23.996 5.0547-35.363 20.211-34.102 42.949 1.2617 10.105 3.7891 20.211 8.8438 29.051l93.473 154.11c2.5273 8.8438 13.895 60.633 35.367 72 2.5273 1.2617 12.633 6.3164 20.211 7.5781l42.949 63.156c1.2617 11.367 18.949 82.105 51.789 85.895l80.844 98.527 44.211 54.316s6.3164 7.5781 6.3164 7.5781 5.0508 6.3164 6.3164 6.3164c16.422 16.422 39.156 25.262 68.211 25.262 22.738 0 49.262-5.0508 77.051-16.422 136.42-41.684 639.16-241.26 644.21-243.79 0 0 13.895-5.0508 18.949-20.211 3.7852-11.363-1.2695-27.785-15.164-46.73zm-168-174.32c12.633-3.7891 22.738-2.5273 30.316 3.7891 10.105 7.5781 11.367 22.738 12.633 30.316l-783.16 232.42c-5.0508-30.316-13.895-51.789-29.051-63.156-1.2617 0-1.2617-1.2617-2.5273-1.2617zm-51.789-50.527 39.156 42.949-783.16 204.63-44.211-68.211zm-8.8398-45.473c8.8438 8.8438 7.5781 26.527 6.3164 32.844l-789.48 179.37c-3.7891-34.105-17.684-51.789-30.316-61.895l781.89-156.63c15.16-1.2617 25.266 0 31.582 6.3164zm-937.27-20.211c2.5273-11.367 12.633-16.422 20.211-18.949 3.7891-1.2617 7.5781-1.2617 7.5781-1.2617 6.3164 0 579.79-65.684 661.89-79.578 18.949-2.5273 37.895-3.7891 53.055-3.7891 22.734 1.2617 44.211 10.105 61.895 26.527l89.684 83.367-785.68 156.63-103.58-138.95c-5.0547-7.5781-7.582-16.422-5.0547-24zm415.58 603.79c-24-6.3164-41.684-27.789-41.684-27.789l-132.63-160.42c-26.527 2.5273-44.211-60.633-46.738-77.051l-46.738-70.738c-3.7891-1.2617-10.105-2.5273-10.105-2.5273-3.7891-1.2617-10.105-5.0508-12.633-6.3164-13.891-7.5781-25.262-51.789-29.051-65.684l-88.422-146.52 94.738 125.05 1.2617 1.2617c5.0508 1.2617 40.422 12.633 41.684 70.738l50.527 79.578 15.156 2.5273c2.5273 1.2617 6.3164 2.5273 10.105 5.0508 8.8438 6.3164 20.211 21.473 25.262 56.844l3.7891 11.367 123.79 174.32c1.2617 1.2617 16.422 22.738 48 34.105-2.5234-2.5273-5.0469-3.7891-6.3125-3.7891zm754.11-267.79c-2.5273 8.8438-11.367 12.633-11.367 12.633-5.0508 2.5273-471.16 186.95-627.79 237.47 0 0-11.367 3.7891-16.422 5.0508-11.367 3.7891-20.211 6.3164-25.262 6.3164-72 13.895-106.11-31.578-107.37-34.105l-121.27-169.26 783.16-232.42c13.895 16.422 80.844 94.738 112.42 136.42 12.633 15.156 16.422 27.789 13.895 37.895z"/>
</svg>
